# xmcd CD database file
#
# Track frame offsets:
#	150
#	15585
#	33744
#	56600
#	68971
#	82106
#	100469
#	114865
#	131825
#	150950
#	162901
#	177341
#	190536
#	209384
#	225995
#	238442
#	254250
#	266563
#	279041
#	295391
#
# Disc length: 4261 seconds
#
# Revision: 1
# Processed by: cddbd v1.5.2PL0 Copyright (c) Steve Scherf et al.
# Submitted via: CDex 1.70beta2
#
DISCID=1810a314
DTITLE=Various Artist - Acoustic 2004-2
DYEAR=2004
DGENRE=Acoustic
TTITLE0=Katie Melua - Crawling Up A Hill
TTITLE1=Jamie Cullum - Pointless Nostalgic
TTITLE2=Eva Cassidy - What A Wonderful World
TTITLE3=Donovan - Colours
TTITLE4=Dirty Dozen Brass Band Feat. Norah Jones - Ruler Of My Heart
TTITLE5=Grant Lee Phillips - Hickory Wind
TTITLE6=Evan Dando - Hard Drive
TTITLE7=Ryan Adams - Amy
TTITLE8=Mark Joseph - The River
TTITLE9=Engineers - If I Were A Carpenter
TTITLE10=Vasconcelos - Come Away With Me
TTITLE11=Richard Hawley - Young And Beautiful
TTITLE12=Jim White - Static On The Radio
TTITLE13=The Stands - All Years Leaving
TTITLE14=I Am Kloot - Proof
TTITLE15=Syd Matters - Black And White Eyes
TTITLE16=Carla Bruni - Quelqu'un M'a Dit
TTITLE17=Lambchop - Something's Going On
TTITLE18=Röyksopp - So Easy
TTITLE19=Moloko - Statues
EXTD=YEAR: 2004
EXTT0=
EXTT1=
EXTT2=
EXTT3=
EXTT4=
EXTT5=
EXTT6=
EXTT7=
EXTT8=
EXTT9=
EXTT10=
EXTT11=
EXTT12=
EXTT13=
EXTT14=
EXTT15=
EXTT16=
EXTT17=
EXTT18=
EXTT19=
PLAYORDER=
